<svg width="58" height="58" viewBox="0 0 58 58" fill="none" xmlns="http://www.w3.org/2000/svg">
<path d="M21.0762 51.0012V49.8462L26.3853 49.0212V8.98005L21.0762 8.21003V7H38.0422V8.21003L32.7331 8.98005V49.6812H49.9876L54.7196 37.5809H56.2777V51.0012H21.0762Z" fill="white"/>
<path d="M38 49.845L32.7711 49.02V8.98L38 8.21V7H20.6651C16.573 7 13.3144 7.36667 10.8894 8.1C8.46441 8.83333 6.70251 9.95166 5.60369 11.455C4.50486 12.9217 3.95545 14.865 3.95545 17.285C3.95545 22.565 7.40348 25.9383 14.2995 27.405V27.68C10.0937 28.23 6.83513 29.44 4.52381 31.31C2.1746 33.18 1 35.7833 1 39.12C1 43.1533 2.53456 46.1417 5.60369 48.085C8.63492 50.0283 12.746 51 17.937 51H38V49.845ZM20.2104 27.24C17.1792 27.24 14.8489 26.415 13.2197 24.765C11.5904 23.115 10.7757 20.7683 10.7757 17.725V17.395C10.7757 11.3817 14.0722 8.375 20.6651 8.375H26.5192V27.24H20.2104ZM17.937 49.68C14.7163 49.68 12.2156 48.7817 10.4347 46.985C8.65386 45.1517 7.76344 42.5483 7.76344 39.175V38.57C7.76344 35.2333 8.65386 32.74 10.4347 31.09C12.1777 29.44 14.6784 28.615 17.937 28.615H26.5192V49.68H17.937Z" fill="white"/>
</svg>
